<svg fill="none" height="24" viewBox="0 0 24 24" width="24" xmlns="http://www.w3.org/2000/svg"><g fill="#1c274c"><path d="m9.60601 5.5625c.76609 0 .91369-.15614 2.39399-.15614 1.4804 0 1.6279.15614 2.394.15614.6384 0 2.5537-1.56239 3.5113-1.56239s2.0748.5625 2.0748 2.1875v1.87489c-.002.49219-.1808 2.0009-.8808 1.59772 1.112 1.31418.8807 2.92128.8808 4.33978 0 3.9062-5.2669 5-7.9801 5-2.71323 0-7.98006-1.0938-7.98006-5 .00001-1.4185-.23119-3.0256.88072-4.33978-.69994.40318-.87878-1.10553-.88071-1.59772v-1.875c0-1.625 1.1172-2.1875 2.07481-2.1875.9576 0 2.87284 1.5625 3.51125 1.5625z" opacity=".5"/><path d="m9.01622 11.0625c-.48884 0-.81473.3175-.97976.5839-.17213.2779-.25411.6148-.25411.9474 0 .3325.08198.6694.25411.9473.16503.2664.49092.5839.97976.5839s.81473-.3175.97976-.5839c.17212-.2779.25412-.6148.25412-.9473 0-.3326-.082-.6695-.25412-.9474-.16503-.2664-.49092-.5839-.97976-.5839z"/><path d="m14.0365 11.6464c.165-.2664.4909-.5839.9797-.5839.4889 0 .8148.3175.9798.5839.1721.2779.2541.6148.2541.9474 0 .3325-.082.6694-.2541.9473-.165.2664-.4909.5839-.9798.5839-.4888 0-.8147-.3175-.9797-.5839-.1722-.2779-.2542-.6148-.2542-.9473 0-.3326.082-.6695.2542-.9474z"/><path clip-rule="evenodd" d="m11.1782 14.0797c.2523-.0978.55-.1422.8412-.1422.2913 0 .5889.0444.8413.1422.1237.0479.2751.1235.4084.2457.1339.1226.3068.3496.3068.6746s-.1729.552-.3068.6746c-.1333.1222-.2847.1978-.4084.2457-.2524.0978-.55.1422-.8413.1422-.2912 0-.5889-.0444-.8412-.1422-.1237-.0479-.2751-.1235-.4085-.2457-.1338-.1226-.3067-.3496-.3067-.6746s.1729-.552.3067-.6746c.1334-.1222.2848-.1978.4085-.2457z" fill-rule="evenodd"/><path d="m17.8634 13.375c0-.4142.3358-.75.75-.75.2957 0 .6502.0674.9806.1487.3447.0848.7194.1992 1.0765.3213.6839.2339 1.4092.5321 1.7369.7437.3479.2247.4478.689.2231 1.0369-.2247.348-.689.4479-1.0369.2232-.1562-.1009-.7213-.3495-1.4084-.5844-.3283-.1123-.6592-.2127-.9496-.2842-.3047-.0749-.5148-.1052-.6222-.1052-.4142 0-.75-.3358-.75-.75z"/><path d="m17.9679 15.125c-.4143 0-.75.3358-.75.75s.3357.75.75.75c.2062 0 .5496.1152.9802.3428.342.1807.6557.3855.901.5456.0461.0301.0902.0589.1312.0854.348.2247.8122.1248 1.037-.2232.2247-.3479.1248-.8122-.2232-1.0369-.0331-.0214-.0709-.0461-.1129-.0735-.2424-.1585-.6226-.4071-1.0323-.6236-.4564-.2412-1.0808-.5166-1.681-.5166z"/><path d="m3.81532 14.5144c-.68709.2349-1.25212.4835-1.40834.5844-.34795.2247-.8122.1248-1.03692-.2232-.22472-.3479-.12482-.8122.22314-1.0369.32765-.2116 1.05294-.5098 1.73683-.7437.35715-.1221.73187-.2365 1.07657-.3213.33036-.0813.68484-.1487.98059-.1487.41422 0 .75.3358.75.75s-.33578.75-.75.75c-.10746 0-.31751.0303-.62223.1052-.29038.0715-.62131.1719-.94964.2842z"/><path d="m4.02026 17.5988c.04113-.0266.08496-.0552.13121-.0854.24533-.1601.55901-.3649.90101-.5456.43065-.2276.77406-.3428.98025-.3428.41422 0 .75-.3358.75-.75s-.33578-.75-.75-.75c-.60026 0-1.2246.2754-1.68104.5166-.40972.2165-.78991.4651-1.03231.6236-.04187.0273-.07982.0522-.1129.0735-.34796.2247-.44786.689-.22314 1.0369.22472.348.68897.4479 1.03692.2232z"/></g></svg>